<svg width="121" height="32" viewBox="0 0 121 32" fill="none" xmlns="http://www.w3.org/2000/svg">
<path fill-rule="evenodd" clip-rule="evenodd" d="M52.4291 5C53.9843 5 55.2234 6.13812 55.2234 7.57873C55.2234 8.99498 53.9843 10.1325 52.4291 10.1325C50.8739 10.1325 49.6614 9.0206 49.6614 7.57873C49.6614 6.13812 50.8739 5 52.4291 5ZM49.3194 12.0543H53.8527L51.5333 24.6968H47L49.3194 12.0543ZM56.7193 12.0544H61.2525L60.4355 16.4287H64.2834L65.101 12.0544H69.6343L67.3149 24.6968H62.7816L63.6247 20.0693H59.7762L58.9331 24.6968H54.3999L56.7193 12.0544ZM83.3624 15.3161C82.4398 13.0911 80.2788 11.7511 77.5111 11.7511C73.2678 11.6748 69.8675 14.8361 69.947 18.7548C69.947 22.3954 72.7407 24.9998 76.7208 24.9998C79.2246 24.9998 81.3857 23.8873 82.677 21.9404L79.7778 19.5635C78.9607 20.6004 78.091 21.106 77.0101 21.106C75.5611 21.106 74.533 20.0698 74.533 18.5779C74.533 16.8836 75.7188 15.6448 77.3267 15.6448C78.407 15.6448 79.2507 16.2011 80.0149 17.4404L83.3624 15.3161ZM90.8974 15.6194C89.3422 15.6194 88.1825 16.8582 88.1825 18.5775C88.1825 20.12 89.1318 21.1313 90.5814 21.1313C92.1887 21.1313 93.3751 19.9175 93.3751 18.3C93.3751 16.7069 92.3737 15.6194 90.8974 15.6194ZM98.9625 12.0545L96.7226 24.6963H92.4786L92.663 23.66C91.7672 24.545 90.6075 25 89.1578 25C85.9426 25 83.517 22.4713 83.517 19.0075C83.4382 14.9876 86.6273 11.6751 90.5547 11.7513C92.2154 11.7513 93.4539 12.2063 94.2449 13.0913L94.4293 12.0545H98.9625ZM119.524 24.6967L120.842 17.4905C120.947 16.8836 121 16.4036 121 16.0242C121 13.4199 119.287 11.7511 116.44 11.7511C114.727 11.7511 113.199 12.383 112.065 13.3186C111.3 12.3074 109.983 11.7511 108.428 11.7511C107.057 11.7511 105.844 12.1805 104.816 13.0655L105.001 12.0543H100.863L98.5435 24.6967H103.077L104.448 17.1874C104.659 16.0749 105.476 15.468 106.425 15.468C107.479 15.468 108.111 16.0749 108.111 17.0611C108.111 17.2124 108.085 17.4399 108.032 17.7436L106.767 24.6967H111.3L112.671 17.1874C112.882 16.0749 113.699 15.468 114.648 15.468C115.702 15.468 116.335 16.0749 116.335 17.0611C116.335 17.238 116.308 17.4655 116.256 17.7686L114.99 24.6967H119.524Z" fill="#151C22"/>
<path fill-rule="evenodd" clip-rule="evenodd" d="M24.3454 11.4449C22.7102 11.8921 21.0983 12.5257 19.5572 13.3577C16.4564 14.9985 13.6838 17.4529 11.4936 20.3177C9.30656 23.1889 7.66328 26.4209 6.53237 29.7153C6.33128 30.3497 6.14307 31.0241 5.97335 31.7369C5.93715 31.8897 5.80122 32.0001 5.64357 32.0001H0.343725C0.0815077 32.0001 -0.0849921 31.7233 0.0453121 31.4977C3.26994 25.9505 6.72461 19.8841 10.1254 13.9113C12.7701 9.26571 15.4526 4.5545 17.983 0.167301C18.1117 -0.0550988 18.4311 -0.0558988 18.5606 0.165701C20.6519 3.7297 22.851 7.47691 25.0766 11.2681C25.012 11.2834 24.9473 11.2983 24.8826 11.3132C24.7031 11.3546 24.5234 11.3961 24.3454 11.4449ZM18.7861 18.2437C21.105 15.8173 24.435 14.2469 26.462 13.6549L26.9703 14.5133C24.756 15.5717 22.4869 17.1333 20.3667 19.6949L18.9043 18.3781L18.7861 18.2437ZM13.0553 31.8996C13.1856 29.6748 13.7036 27.4628 14.775 24.5972L15.2817 23.3332L17.7438 24.2164L17.3481 25.5196C16.6006 28.3453 16.4957 30.2023 16.4231 31.4868C16.415 31.6315 16.4072 31.7689 16.399 31.8996H13.0553ZM36.9543 31.5038C34.4367 27.2142 31.7679 22.667 29.0773 18.0838L28.9308 17.8343L28.9307 17.8341C28.7978 17.608 28.6651 17.3821 28.5328 17.1558C28.1563 17.4102 27.7799 17.667 27.4324 17.9542C26.5372 18.6902 25.7481 19.5086 25.0886 20.387C23.7517 22.1342 22.9426 24.0966 22.5058 26.1166C22.1157 27.907 22.0618 29.7798 22.1575 31.6766C22.1664 31.8566 22.3184 31.9998 22.501 31.9998H36.6615C36.9205 31.9998 37.0846 31.7254 36.9543 31.5038Z" fill="#151C22"/>
</svg>
