<svg width="18" height="18" viewBox="0 0 18 18" fill="none" xmlns="http://www.w3.org/2000/svg">
<path fill-rule="evenodd" clip-rule="evenodd" d="M4.839 13.1025C1.061 10.6995 1.061 5.3005 4.839 2.8975C6.743 1.6855 9.258 1.6855 11.162 2.8975C14.94 5.3005 14.94 10.6995 11.162 13.1025C9.258 14.3135 6.743 14.3135 4.839 13.1025ZM14.32 12.9105C16.76 9.7695 16.541 5.2295 13.661 2.3395C10.531 -0.7805 5.47 -0.7805 2.34 2.3395C-0.78 5.4695 -0.78 10.5295 2.34 13.6605C5.231 16.5405 9.771 16.7595 12.911 14.3195L16.59 17.9995L18.001 16.5895L14.32 12.9105Z" fill="#768A9C"/>
</svg>
