<svg width="52" height="68" viewBox="0 0 52 68" fill="none" xmlns="http://www.w3.org/2000/svg">
<path fill-rule="evenodd" clip-rule="evenodd" d="M50 55H26H24H19.838C19.942 54.517 20 54.021 20 53.515V51.485C20 50.149 20.521 48.894 21.465 47.949L25.654 43.76C27.186 42.229 27.32 39.799 25.968 38.108C25.231 37.188 24.136 36.612 22.961 36.527C21.783 36.438 20.619 36.854 19.729 37.687L12.003 45.519L12.042 9.445L20.351 2H50V55ZM50 0H20.351C19.897 0 19.454 0.155 19.06 0.474L10.751 7.919C10.273 8.3 10 8.869 10 9.48V33.828L4.458 38.659C1.625 41.13 0 44.701 0 48.459V68H2V48.459C2 45.279 3.375 42.257 5.772 40.167L10 36.481V47.549L7.288 50.298L8.712 51.702L21.124 39.119C21.584 38.688 22.181 38.47 22.816 38.522C23.446 38.567 24.011 38.864 24.405 39.358C25.121 40.252 25.05 41.536 24.24 42.346L20.051 46.535C18.729 47.857 18 49.615 18 51.485V53.515C18 54.851 17.479 56.106 16.535 57.051L13.293 60.293L14.707 61.707L17.949 58.465C18.392 58.022 18.762 57.527 19.065 57H23.953C23.842 58.15 23.363 59.223 22.535 60.051L20 62.586V68H22V63.414L23.949 61.465C25.156 60.258 25.861 58.687 25.977 57H50C51.103 57 52 56.103 52 55V2C52 0.897 51.103 0 50 0ZM20 10H15V12H20C21.103 12 22 11.103 22 10V5H20V10ZM40.2244 20.3678L41.7754 21.6318L30.5574 35.4038L22.3714 28.7778L23.6294 27.2228L30.2664 32.5958L40.2244 20.3678Z" fill="#293640"/>
</svg>
