<svg width="69" height="66" viewBox="0 0 69 66" fill="none" xmlns="http://www.w3.org/2000/svg">
<path fill-rule="evenodd" clip-rule="evenodd" d="M61.9094 31.3664L65.4905 36.7793H66.8578C66.9031 36.1122 66.9354 35.4422 66.9354 34.764C66.9354 26.3031 63.3432 18.6725 57.6189 13.3312L54.7613 16.2119C54.4973 16.4779 54.1376 16.6271 53.7638 16.6271H47.1931L44.6045 19.2347C44.3415 19.5008 43.9828 19.6499 43.609 19.6499H42.1338C40.839 19.6499 39.779 20.7099 39.779 22.0047V26.7032H45.6131C45.988 26.7032 46.3386 26.8503 46.6036 27.1163L54.193 34.764H55.4112L57.9887 31.3019C58.2547 30.9442 58.6749 30.7336 59.1223 30.7336H60.7335C61.2071 30.7336 61.6484 30.9704 61.9094 31.3664ZM37.9995 3.5281C55.0938 3.5281 69 17.5399 69 34.7641C69 35.4422 68.9708 36.1122 68.9285 36.7793H69V38.7945H68.734C66.7651 54.1203 53.7376 66 37.9995 66C20.9063 66 6.99907 51.9882 6.99907 34.7641C6.99907 34.1021 7.02729 33.4431 7.0686 32.7861C5.25589 31.6314 -0.225568 27.5465 0.0071922 20.5084C0.278235 12.2542 6.65514 9.56081 10.465 7.95164L10.4653 7.95152L10.5086 7.9332C10.9618 7.74166 11.3842 7.5631 11.7621 7.38927C17.933 4.5445 20.7889 1.55482 21.8656 0.42773L21.8675 0.425669C22.2111 0.0639369 22.6746 -0.0761211 23.1341 0.0397542C24.051 0.268482 24.8723 1.03225 27.1041 8.82411C28.7214 14.4738 28.138 20.5658 25.501 25.5374C22.4116 31.3654 17.0108 32.9 15.4288 33.2315L15.0207 31.2586C16.3881 30.9714 21.0554 29.6444 23.7377 24.5872C26.1298 20.0751 26.6567 14.5332 25.1826 9.38333C23.91 4.93977 23.1734 3.11801 22.7754 2.37338C21.3295 3.83341 18.2844 6.5983 12.5944 9.22111C12.1873 9.40953 11.7299 9.60299 11.2381 9.80955L11.2374 9.80987C7.43871 11.415 2.23503 13.6137 2.0053 20.5749C1.83905 25.6301 5.32642 28.9914 7.29128 30.4787C8.13265 24.3292 10.7766 18.5526 14.9432 13.8843L16.4294 15.2325C11.6382 20.6011 9.00021 27.5375 9.00021 34.7641C9.00021 50.8758 22.0096 63.9848 37.9995 63.9848C52.6322 63.9848 64.7619 53.0058 66.7177 38.7945H65.2194C64.7488 38.7945 64.3075 38.5577 64.0475 38.1647L60.4665 32.7488H59.4145L56.834 36.213C56.569 36.5697 56.1518 36.7793 55.7085 36.7793H53.9341C53.5602 36.7793 53.2025 36.6301 52.9385 36.3641L45.3501 28.7184H39.7941C38.6777 28.7184 37.7638 27.8045 37.7638 26.687V21.9865C37.7638 19.5874 39.7014 17.6347 42.0834 17.6347H43.35L45.9386 15.027C46.2016 14.761 46.5603 14.6118 46.9341 14.6118H53.5864L56.1669 12.0112C51.1923 7.96965 44.8725 5.54333 37.9995 5.54333C35.7465 5.54333 33.5015 5.80531 31.3281 6.32019L30.8696 4.35838C33.1942 3.80721 35.5923 3.5281 37.9995 3.5281ZM37.5504 41.8177C38.2195 41.8177 38.8472 42.1392 39.2382 42.6823L41.3965 45.6829C41.6545 46.0416 41.7945 46.4739 41.7945 46.9173V54.7716C41.7945 55.4084 42.3104 55.9243 42.9473 55.9243H45.3363L50.842 50.5981L50.8631 41.7583L43.6727 34.7645H37.4698L33.7547 38.4221L33.7336 41.7442L33.8061 41.8177H37.5504ZM45.3404 57.9395H42.9473C41.2 57.9395 39.7793 56.5178 39.7793 54.7716V46.9072L37.6059 43.8632L33.8061 43.833C32.6554 43.833 31.7183 42.8959 31.7183 41.7442V38.4856C31.7183 37.9213 31.943 37.3802 32.3431 36.9842L36.0037 33.3508C36.3927 32.9649 36.9177 32.7492 37.4648 32.7492H43.6768C44.2179 32.7492 44.7378 32.9598 45.1257 33.3377L52.2405 40.2559C52.6486 40.6519 52.8784 41.196 52.8784 41.7653V50.5396C52.8784 51.1079 52.6486 51.652 52.2405 52.049L46.7873 57.3521C46.3994 57.7289 45.8815 57.9395 45.3404 57.9395Z" fill="#293640"/>
</svg>
