<svg width="66" height="72" viewBox="0 0 66 72" fill="none" xmlns="http://www.w3.org/2000/svg">
<path fill-rule="evenodd" clip-rule="evenodd" d="M33.618 4H24V12H33.618L34.618 14H37V2H34.618L33.618 4ZM48.23 11.992L49.215 10.252C59.568 16.103 66 27.119 66 39C66 57.196 51.196 72 33 72C14.804 72 0 57.196 0 39C0 25.015 8.835 12.539 22 7.886V4C22 2.897 22.897 2 24 2H32.382L32.829 1.105C33.169 0.424 33.854 0 34.618 0H39V4H44V6H39V10H44V12H39V16H34.618C33.854 16 33.169 15.576 32.829 14.894L32.382 14H24C22.897 14 22 13.103 22 12V10.031C10.007 14.586 2 26.103 2 39C2 56.094 15.906 70 33 70C50.094 70 64 56.094 64 39C64 27.839 57.958 17.49 48.23 11.992ZM17.6846 32L22.5936 23H42.4066L47.3156 32H17.6846ZM56.9996 32V29C56.9996 27.897 56.1026 27 54.9996 27H49.5856L47.8266 28.76L43.5936 21H21.4066L17.1736 28.76L15.4136 27H9.9996C8.8976 27 7.9996 27.897 7.9996 29V32C7.9996 33.103 8.8976 34 9.9996 34H12.9996V32H9.9996V29H14.5856L16.1756 30.59L15.4066 32H14.9996V34H49.9996V32H49.5936L48.8246 30.59L50.4136 29H54.9996V32H51.9996V34H54.9996C56.1026 34 56.9996 33.103 56.9996 32ZM52 55H46C44.346 55 43 53.654 43 52V49H22V52C22 53.654 20.654 55 19 55H13C11.346 55 10 53.654 10 52V46.722C9.405 46.375 9 45.736 9 45V38C9 36.346 10.346 35 12 35H14V37H12C11.448 37 11 37.448 11 38V45H14V47H12V52C12 52.552 12.448 53 13 53H19C19.552 53 20 52.552 20 52V49H16V47H48V49H45V52C45 52.552 45.448 53 46 53H52C52.552 53 53 52.552 53 52V47H51V45H54V38C54 37.448 53.552 37 53 37H51V35H53C54.654 35 56 36.346 56 38V45C56 45.736 55.595 46.375 55 46.722V52C55 53.654 53.654 55 52 55ZM41 42V44H25V42H41ZM50.1406 36.6328L42.4126 38.7028L42.9306 40.6348L50.6586 38.5648L50.1406 36.6328ZM15.9302 36.6331L23.6582 38.7031L23.1402 40.6351L15.4132 38.5641L15.9302 36.6331Z" fill="#293640"/>
</svg>
