<svg width="50" height="66" viewBox="0 0 50 66" fill="none" xmlns="http://www.w3.org/2000/svg">
<path fill-rule="evenodd" clip-rule="evenodd" d="M13 2H2V5H0V2C0 0.897 0.897 0 2 0H13C14.103 0 15 0.897 15 2V5H13V2ZM45 64C46.654 64 48 62.654 48 61V23.899L25.023 6.278L16.713 13.139C16.11 13.637 15.294 13.739 14.588 13.406C13.88 13.072 13.44 12.379 13.44 11.597V8.906H2V27H13.691C14.095 27 14.485 27.12 14.818 27.348L36.152 42.894C36.674 43.25 37 43.867 37 44.528V55C37 56.103 36.103 57 35 57H2V61C2 62.654 3.346 64 5 64H45ZM13.666 28.982L2 28.999V55H35V44.528L13.666 28.982ZM26.24 4.69L49.217 22.312C49.707 22.687 50 23.28 50 23.899V61C50 63.757 47.757 66 45 66H5C2.243 66 0 63.757 0 61V8.906C0 7.804 0.897 6.906 2 6.906H13.44C14.543 6.906 15.44 7.804 15.44 8.906V11.597L23.75 4.735C24.471 4.14 25.495 4.119 26.24 4.69Z" fill="#293640"/>
</svg>
