<svg width="74" height="56" viewBox="0 0 74 56" fill="none" xmlns="http://www.w3.org/2000/svg">
<path fill-rule="evenodd" clip-rule="evenodd" d="M68.11 47.556C71.909 47.556 72 44.562 72 40.882V14.139C72 10.459 71.909 7.465 68.11 7.465C68.045 7.465 68 7.507 68 7.545V12.909C68 14.063 67.063 15 65.909 15H62.08C60.934 15 60 14.067 60 12.92V8.091C60 8.043 59.957 8 59.909 8H47.08C45.934 8 45 7.067 45 5.92V2H39V5.909C39 7.063 38.062 8 36.909 8H26.993L19.116 16.338C18.725 16.758 18.166 17 17.587 17H8.08C8.036 17 8 17.036 8 17.08V23.909C8 25.063 7.062 26 5.909 26H2V30H5.92C7.066 30 8 30.934 8 32.08V37.92C8 37.961 8.039 38 8.08 38H17.92C19.066 38 20 38.934 20 40.08V47.909C20 47.957 20.043 48 20.091 48H31.429C32.001 48 32.555 48.238 32.949 48.653L38 53.97L59.92 54C59.964 54 60 53.964 60 53.92V43.091C60 41.938 60.937 41 62.091 41H65.92C67.066 41 68 41.934 68 43.08V47.476C68 47.514 68.045 47.556 68.11 47.556ZM66 7.545C66 6.399 66.946 5.465 68.11 5.465C73.012 5.465 74 9.356 74 14.139V40.882C74 45.665 73.012 49.556 68.11 49.556C66.946 49.556 66 48.622 66 47.476V43.08C66 43.036 65.964 43 65.92 43H62.091C62.043 43 62 43.043 62 43.091V53.92C62 55.067 61.066 56 59.92 56H38.071C37.499 56 36.945 55.762 36.551 55.348L31.5 50.03L20.091 50C18.937 50 18 49.063 18 47.909V40.08C18 40.036 17.964 40 17.92 40H8.08C6.934 40 6 39.067 6 37.92V32.08C6 32.036 5.964 32 5.92 32H2V42H0V13H2V24H5.909C5.957 24 6 23.957 6 23.909V17.08C6 15.934 6.934 15 8.08 15H17.587L25.469 6.66C25.861 6.241 26.418 6 26.993 6H36.909C36.957 6 37 5.957 37 5.909V2H33V0H51V2H47V5.92C47 5.964 47.036 6 47.08 6H59.909C61.062 6 62 6.938 62 8.091V12.92C62 12.964 62.036 13 62.08 13H65.909C65.957 13 66 12.957 66 12.909V7.545ZM30 23.0002C30 25.2062 31.794 27.0002 34 27.0002C36.206 27.0002 38 25.2062 38 23.0002C38 20.7942 36.206 19.0002 34 19.0002C31.794 19.0002 30 20.7942 30 23.0002ZM28 23.0002C28 19.6912 30.691 17.0002 34 17.0002C37.309 17.0002 40 19.6912 40 23.0002C40 26.3092 37.309 29.0002 34 29.0002C30.691 29.0002 28 26.3092 28 23.0002ZM49.5 37.0002C48.672 37.0002 48 37.6722 48 38.5002C48 39.3282 48.672 40.0002 49.5 40.0002C50.328 40.0002 51 39.3282 51 38.5002C51 37.6722 50.328 37.0002 49.5 37.0002ZM48.209 41.4422C49.404 42.3452 51.106 42.2282 52.167 41.1672C53.227 40.1062 53.346 38.4052 52.442 37.2092L39.741 18.5522C38.502 16.9132 36.572 15.8672 34.475 15.7222C34.306 15.7102 34.138 15.7042 33.97 15.7042C32.05 15.7042 30.201 16.4652 28.833 17.8332C27.346 19.3202 26.576 21.3762 26.722 23.4752C26.867 25.5722 27.913 27.5022 29.592 28.7702L48.209 41.4422ZM34.612 13.7272C37.288 13.9122 39.749 15.2462 41.365 17.3872L54.066 36.0442C55.539 37.9922 55.343 40.8192 53.581 42.5812C52.612 43.5502 51.321 44.0452 50.024 44.0452C48.972 44.0452 47.915 43.7192 47.024 43.0542L28.427 30.3942C26.246 28.7492 24.912 26.2882 24.727 23.6122C24.541 20.9372 25.522 18.3142 27.419 16.4192C29.314 14.5222 31.936 13.5422 34.612 13.7272Z" fill="#293640"/>
</svg>
