<svg width="62" height="60" viewBox="0 0 62 60" fill="none" xmlns="http://www.w3.org/2000/svg">
<path fill-rule="evenodd" clip-rule="evenodd" d="M30.95 49.83C39.73 46.3 49.74 44.33 60 44.1V2.02C50.11 2.25 40.48 4.13 32 7.5V46H30V7.531C21.46 4.151 11.84 2.25 2 2.02V44.1C12.18 44.33 22.13 46.31 30.95 49.83ZM0 0C10.88 0 21.55 2 30.95 5.76C40.3 1.991 51.04 0 62 0V46.08C61.3397 46.08 60.6891 46.0897 60.0291 46.0996L60 46.1C49.97 46.33 40.2 48.26 31.63 51.71L31.02 52C22.23 48.371 12.23 46.34 2 46.1L1.97087 46.0996C1.31086 46.0897 0.660288 46.08 0 46.08V0ZM62.0002 52.0805C51.0402 52.0805 40.3002 54.0705 30.9502 57.8305C21.5502 54.0805 10.8802 52.0805 0.0002 52.0805V54.0805C10.9302 54.0805 21.6602 56.1205 31.0202 60.0005L31.6302 59.7105C40.7702 56.0305 51.2702 54.0805 62.0002 54.0805V52.0805Z" fill="#293640"/>
</svg>
