<svg width="48" height="68" viewBox="0 0 48 68" fill="none" xmlns="http://www.w3.org/2000/svg">
<path fill-rule="evenodd" clip-rule="evenodd" d="M45 16C45.552 16 46 15.552 46 15V3C46 2.448 45.552 2 45 2H39C38.448 2 38 2.448 38 3V8V10V15C38 15.552 38.448 16 39 16H41V4H43V16H45ZM17 19H31V3C31 2.448 30.552 2 30 2H18C17.448 2 17 2.448 17 3V19ZM9 16C9.552 16 10 15.552 10 15V10V8V3C10 2.448 9.552 2 9 2H3C2.448 2 2 2.448 2 3V15C2 15.552 2.448 16 3 16H5V4H7V16H9ZM39 0H45C46.654 0 48 1.346 48 3V15C48 16.654 46.654 18 45 18H39C37.346 18 36 16.654 36 15V10H33V21H15V10H12V15C12 16.654 10.654 18 9 18H3C1.346 18 0 16.654 0 15V3C0 1.346 1.346 0 3 0H9C10.654 0 12 1.346 12 3V8H15V3C15 1.346 16.346 0 18 0H30C31.654 0 33 1.346 33 3V8H36V3C36 1.346 37.346 0 39 0ZM26.7666 35H21.8056L19.8056 25H28.7666L26.7666 35ZM31.9996 23H15.9996V25H18.7866L17.8056 25.196L20.1646 37H22.9996V52H24.9996V37H28.4056L30.7666 25.196L29.7866 25H31.9996V23ZM45 65C45 65.552 44.552 66 44 66H38C37.448 66 37 65.552 37 65V53C37 52.448 37.448 52 38 52H40V63H42V52H44C44.552 52 45 52.448 45 53V65ZM11 65C11 65.552 10.552 66 10 66H4C3.448 66 3 65.552 3 65V53C3 52.448 3.448 52 4 52H6V63H8V52H10C10.552 52 11 52.448 11 53V65ZM44 50H38C36.346 50 35 51.346 35 53V58H13V53C13 51.346 11.654 50 10 50H4C2.346 50 1 51.346 1 53V65C1 66.654 2.346 68 4 68H10C11.654 68 13 66.654 13 65V60H35V65C35 66.654 36.346 68 38 68H44C45.654 68 47 66.654 47 65V53C47 51.346 45.654 50 44 50ZM20 64H28V62H20V64ZM27 56H21V54H27V56Z" fill="#293640"/>
</svg>
