<svg width="66" height="66" viewBox="0 0 66 66" fill="none" xmlns="http://www.w3.org/2000/svg">
<path fill-rule="evenodd" clip-rule="evenodd" d="M2 33C2 50.094 15.906 64 33 64C50.094 64 64 50.094 64 33C64 15.906 50.094 2 33 2C15.906 2 2 15.906 2 33ZM0 33C0 14.804 14.804 0 33 0C51.196 0 66 14.804 66 33C66 51.196 51.196 66 33 66C14.804 66 0 51.196 0 33ZM32 20V28H34V20H32ZM20.7006 27.5768L28.3086 30.0488L27.6916 31.9508L20.0826 29.4798L20.7006 27.5768ZM45.3 27.5775L45.917 29.4795L38.309 31.9515L37.691 30.0485L45.3 27.5775ZM39.8934 44.0599L35.1914 37.5879L36.8084 36.4119L41.5104 42.8839L39.8934 44.0599ZM24.4893 42.8838L26.1063 44.0598L30.8083 37.5878L29.1913 36.4118L24.4893 42.8838ZM49.21 46.3301L41.274 35.5441C41.193 35.4341 41.244 35.2761 41.375 35.2351L53.91 31.2101C53.96 31.8001 54 32.4001 54 33.0001C54 38.0591 52.2 42.7001 49.21 46.3301ZM43.061 51.4201L33.806 38.8361C33.406 38.2921 32.594 38.2921 32.194 38.8361L22.939 51.4201C21.18 50.4601 19.57 49.2501 18.16 47.8401L27.326 35.3811C27.731 34.8301 27.477 34.0441 26.825 33.8361L12.359 29.2001C12.731 27.2101 13.38 25.3301 14.26 23.5801L28.694 28.2111C29.34 28.4181 30 27.9361 30 27.2591V12.2401C30.981 12.1001 31.981 12.0001 33 12.0001C34.02 12.0001 35.02 12.1001 36 12.2401V27.2591C36 27.9361 36.66 28.4181 37.306 28.2111L51.74 23.5801C52.62 25.3301 53.27 27.2101 53.641 29.2001L39.175 33.8361C38.523 34.0441 38.27 34.8301 38.674 35.3811L47.84 47.8401C46.43 49.2501 44.82 50.4601 43.061 51.4201ZM33 54.0001C30.08 54.0001 27.3 53.4001 24.76 52.3091L32.92 41.2291C32.959 41.1751 33.041 41.1751 33.08 41.2291L41.24 52.3091C38.7 53.4001 35.92 54.0001 33 54.0001ZM16.79 46.3301C13.8 42.7001 12 38.0591 12 33.0001C12 32.4001 12.04 31.8001 12.09 31.2101L24.625 35.2351C24.756 35.2761 24.807 35.4341 24.726 35.5441L16.79 46.3301ZM28 12.6301V25.6051C28 25.7411 27.868 25.8381 27.739 25.7961L15.27 21.8001C18.13 17.2801 22.66 13.9401 28 12.6301ZM38 12.6301C43.34 13.9401 47.87 17.2801 50.731 21.8001L38.261 25.7961C38.132 25.8381 38 25.7411 38 25.6051V12.6301ZM55.87 30.5801C55.8 29.9001 55.7 29.2401 55.57 28.5801C55.18 26.6001 54.54 24.7101 53.68 22.9501C53.391 22.3401 53.061 21.7401 52.71 21.1601C49.51 15.8501 44.231 11.9401 38 10.5501C37.34 10.4101 36.68 10.2901 36 10.2001C35.02 10.0701 34.02 10.0001 33 10.0001C31.981 10.0001 30.981 10.0701 30 10.2001C29.32 10.2901 28.66 10.4101 28 10.5501C21.77 11.9401 16.49 15.8501 13.29 21.1601C12.939 21.7401 12.609 22.3401 12.32 22.9501C11.46 24.7101 10.82 26.6001 10.43 28.5801C10.3 29.2401 10.2 29.9001 10.13 30.5801C10.04 31.3801 10 32.1801 10 33.0001C10 38.7201 12.1 43.9501 15.57 47.9801C16.01 48.5001 16.481 48.9901 16.96 49.4601C18.391 50.8601 20 52.0591 21.74 53.0501C22.33 53.3801 22.93 53.6801 23.55 53.9601C26.439 55.2691 29.63 56.0001 33 56.0001C36.37 56.0001 39.561 55.2691 42.45 53.9601C43.07 53.6801 43.67 53.3801 44.26 53.0501C46 52.0591 47.609 50.8601 49.04 49.4601C49.52 48.9901 49.99 48.5001 50.43 47.9801C53.9 43.9501 56 38.7201 56 33.0001C56 32.1801 55.96 31.3801 55.87 30.5801ZM31 33C31 34.1 31.9 35 33 35C34.1 35 35 34.1 35 33C35 31.9 34.1 31 33 31C31.9 31 31 31.9 31 33ZM33.633 29.049C35.317 29.306 36.694 30.684 36.951 32.368C37.365 35.072 35.072 37.365 32.367 36.951C30.683 36.694 29.306 35.316 29.049 33.632C28.635 30.928 30.928 28.635 33.633 29.049Z" fill="#293640"/>
</svg>
